<?xml version="1.0" standalone="no"?>
<!DOCTYPE svg PUBLIC "-//W3C//DTD SVG 20010904//EN"
 "http://www.w3.org/TR/2001/REC-SVG-20010904/DTD/svg10.dtd">
<svg version="1.0" xmlns="http://www.w3.org/2000/svg"
 width="576.000000pt" height="576.000000pt" viewBox="0 0 576.000000 576.000000"
 preserveAspectRatio="xMidYMid meet">
<metadata>
Created by potrace 1.14, written by Peter Selinger 2001-2017
</metadata>
<g transform="translate(0.000000,576.000000) scale(0.100000,-0.100000)"
fill="#000000" stroke="none">
<path d="M3496 5432 c-27 -6 -86 -45 -113 -73 -26 -28 -50 -83 -58 -130 -3
-19 -10 -61 -16 -94 -6 -33 -13 -72 -14 -87 -2 -15 -9 -54 -15 -88 -6 -34 -13
-75 -15 -91 -2 -17 -6 -42 -9 -57 -3 -15 -8 -43 -10 -62 -3 -19 -7 -44 -9 -55
-3 -11 -8 -40 -12 -65 -4 -25 -9 -54 -11 -65 -2 -10 -6 -35 -9 -55 -3 -20 -7
-45 -9 -57 -3 -11 -7 -37 -10 -57 -14 -83 -17 -102 -21 -131 -2 -16 -7 -42 -9
-58 -10 -48 -25 -141 -30 -177 -3 -19 -7 -46 -10 -60 -3 -13 -8 -42 -12 -64
-3 -22 -8 -44 -10 -48 -3 -5 0 -8 5 -8 6 0 40 -18 76 -40 36 -22 67 -40 68
-40 2 0 57 -31 123 -70 65 -38 131 -75 147 -81 15 -6 27 -15 27 -20 0 -5 4 -9
10 -9 7 0 285 -154 360 -200 42 -26 172 -100 175 -100 2 0 30 -16 62 -35 32
-19 61 -35 64 -35 3 0 12 35 19 78 7 42 13 84 15 92 14 75 19 106 19 115 1 6
22 10 49 10 26 0 47 2 47 5 0 3 28 3 63 0 34 -3 83 -3 110 0 26 3 47 3 47 0 0
-3 33 -4 72 -3 40 1 102 2 138 2 107 0 143 2 151 7 4 2 10 0 14 -6 4 -6 10 -8
14 -6 4 3 35 7 70 11 69 7 74 8 146 28 51 14 117 40 145 58 8 5 26 15 40 21
14 7 27 15 30 18 3 3 22 18 44 34 49 37 115 103 152 152 16 22 31 41 34 44 3
3 11 16 18 30 6 14 16 32 21 40 18 28 44 94 58 145 8 27 17 59 20 70 3 11 8
115 10 231 3 185 1 217 -14 253 -22 50 -74 106 -116 125 -51 22 -97 36 -97 27
0 -4 -15 -6 -32 -4 -65 6 -288 8 -288 2 0 -3 -19 -3 -42 0 -24 4 -60 4 -80 0
-21 -3 -40 -3 -43 0 -3 3 -23 4 -44 2 -36 -2 -43 3 -156 113 -92 91 -133 124
-189 151 -74 37 -150 57 -201 55 -16 -1 -37 -2 -45 -1 -44 2 -134 0 -141 -5
-4 -2 -10 0 -13 4 -3 5 -25 6 -48 3 -24 -4 -62 -4 -86 -1 -24 4 -45 4 -47 0
-2 -3 -29 -3 -59 0 -30 3 -63 3 -73 -1 -15 -5 -37 18 -117 125 -90 121 -143
174 -178 180 -7 1 -17 4 -23 7 -11 7 -100 8 -129 1z m1073 -659 c49 -38 66
-70 66 -132 0 -48 -5 -64 -29 -96 -98 -128 -303 -43 -283 118 6 47 48 103 90
122 42 18 123 12 156 -12z"/>
<path d="M225 4143 c-27 -8 -63 -24 -80 -36 -41 -28 -95 -87 -95 -103 0 -8 -4
-14 -9 -14 -18 0 -42 -106 -37 -166 2 -32 5 -59 6 -59 1 0 4 -13 6 -30 3 -16
9 -44 15 -62 5 -17 12 -43 15 -57 2 -14 16 -58 30 -98 83 -234 261 -431 486
-541 84 -41 81 -36 77 -137 0 -14 0 -32 0 -40 0 -8 0 -40 0 -70 0 -30 0 -62 0
-70 1 -24 0 -168 -2 -248 -1 -39 1 -72 5 -72 4 0 5 -6 2 -13 -8 -23 -10 -307
-1 -307 5 0 5 -5 2 -10 -8 -13 -8 -226 0 -240 3 -5 3 -10 -2 -10 -4 0 -8 -22
-8 -50 0 -27 4 -50 8 -50 5 0 5 -4 2 -10 -5 -8 -6 -49 -4 -130 0 -8 0 -31 0
-50 -1 -19 -1 -44 -1 -55 1 -34 1 -279 0 -292 0 -7 0 -19 -1 -25 0 -7 0 -33 0
-58 1 -25 0 -71 -1 -103 -2 -31 -1 -57 2 -57 3 0 4 -28 2 -62 -4 -90 -2 -197
4 -238 9 -55 45 -121 91 -166 86 -85 140 -97 413 -91 113 2 212 6 220 9 58 21
80 31 80 39 0 5 6 9 13 9 19 0 83 75 106 125 16 35 38 146 33 167 -3 12 -3 88
0 151 2 31 0 57 -3 57 -3 0 -3 20 1 45 4 25 4 48 0 50 -4 3 -4 22 0 44 4 22 4
45 -1 52 -4 7 -5 17 -3 21 3 5 5 29 4 53 -1 63 -1 62 -1 150 0 44 0 89 1 100
0 11 2 44 3 73 1 28 0 52 -3 52 -6 0 -2 151 4 157 3 3 1 16 -5 30 -5 13 -5 22
-1 19 4 -2 6 11 4 30 -4 34 -4 34 23 24 16 -6 40 -17 54 -25 47 -25 224 -88
286 -101 99 -21 183 -36 235 -43 67 -9 386 -7 430 2 14 3 43 9 65 12 69 11 78
13 155 33 95 26 208 67 283 103 63 30 74 26 65 -26 -3 -14 -2 -25 2 -25 3 0 4
-23 0 -50 -4 -28 -3 -53 0 -55 4 -3 4 -22 0 -44 -4 -22 -4 -45 1 -52 4 -7 6
-16 4 -19 -4 -6 -5 -33 -6 -200 0 -47 -1 -118 -2 -158 -1 -39 1 -72 5 -72 4 0
5 -6 2 -13 -8 -23 -10 -307 -1 -307 5 0 6 -4 3 -8 -8 -14 -9 -94 -2 -141 16
-101 87 -195 182 -242 48 -23 55 -24 294 -24 235 0 247 1 291 23 53 26 129 90
129 108 0 7 4 14 10 16 18 6 48 112 49 178 1 36 3 98 4 138 1 39 -1 72 -5 72
-4 0 -5 6 -2 14 7 19 10 236 3 236 -3 0 -3 20 1 45 4 24 4 49 0 55 -4 7 -4 26
-1 43 4 18 4 51 1 75 -4 23 -4 42 -1 42 3 0 6 101 6 225 0 124 -3 225 -7 225
-4 0 -5 6 -2 13 8 22 10 307 2 307 -4 0 -5 6 -2 14 7 19 10 236 3 236 -3 0 -3
20 1 45 4 24 4 49 1 54 -4 6 -4 40 -1 76 3 37 3 68 -1 71 -3 2 -3 21 1 43 4
22 4 45 -1 52 -4 7 -5 17 -3 21 8 12 7 93 0 115 -6 18 -17 26 -126 85 -30 17
-62 37 -71 44 -8 8 -19 14 -23 14 -5 0 -46 23 -93 50 -47 28 -89 50 -94 50 -5
0 -9 5 -9 10 0 6 -5 10 -10 10 -6 0 -82 42 -170 93 -88 50 -183 104 -210 119
-27 15 -88 49 -136 77 -47 28 -88 51 -91 51 -3 0 -18 9 -34 21 -16 11 -39 22
-51 25 -33 7 -236 6 -248 -1 -6 -3 -10 -3 -10 2 0 4 -33 7 -72 6 -172 -5 -270
-5 -274 0 -3 2 -20 1 -38 -3 -19 -4 -39 -4 -46 0 -6 4 -29 4 -51 0 -22 -4 -41
-4 -44 0 -2 4 -25 4 -50 0 -25 -4 -45 -4 -45 -1 0 3 -24 5 -52 4 -29 -1 -62
-3 -73 -3 -11 -1 -56 -1 -100 -1 -88 0 -87 0 -150 1 -24 1 -48 -1 -53 -4 -4
-2 -14 -1 -21 3 -7 5 -30 5 -52 1 -22 -4 -41 -4 -44 0 -2 4 -25 4 -50 0 -25
-4 -45 -4 -45 -1 0 3 -24 5 -52 4 -29 -1 -62 -3 -73 -3 -34 -2 -179 -2 -210 0
-100 5 -135 4 -135 -2 0 -4 -6 -5 -12 -3 -7 2 -42 6 -78 9 -76 6 -101 14 -156
51 -52 35 -111 104 -118 138 -2 7 -6 19 -9 27 -3 8 -9 29 -13 45 -4 17 -8 32
-9 35 0 3 -7 30 -14 60 -51 212 -222 320 -416 263z"/>
</g>
</svg>
